<?xml version="1.0" standalone="no"?>
<!DOCTYPE svg PUBLIC "-//W3C//DTD SVG 20010904//EN" "http://www.w3.org/TR/2001/REC-SVG-20010904/DTD/svg10.dtd">
<svg version="1.0" xmlns="http://www.w3.org/2000/svg"
 width="200.000000pt" height="200.000000pt" viewBox="0 0 200.000000 200.000000"
 preserveAspectRatio="xMidYMid meet">

<g transform="translate(0.000000,200.000000) scale(0.100000,-0.100000)"
fill="currentColor" stroke="none">
<path d="M530 1791 c-164 -54 -240 -224 -167 -373 29 -60 83 -111 136 -129
l31 -11 0 -278 0 -278 -33 -11 c-52 -17 -103 -67 -134 -129 -65 -132 -13 -284
121 -355 58 -30 174 -30 231 0 54 28 119 100 136 149 44 130 -29 295 -148 335
l-33 11 0 104 0 105 56 -40 c91 -65 150 -83 292 -89 l123 -4 13 -33 c20 -46
82 -113 130 -138 58 -30 174 -30 231 0 54 28 119 100 136 149 59 175 -67 354
-251 354 -112 0 -197 -56 -243 -159 l-19 -44 -109 5 c-97 5 -117 9 -174 37
-107 53 -185 167 -185 270 0 35 4 40 31 50 53 18 107 69 135 128 65 133 13
287 -120 355 -44 22 -145 33 -186 19z m127 -140 c124 -57 80 -251 -57 -251
-98 0 -161 111 -114 201 15 29 80 69 114 69 8 0 34 -9 57 -19z m804 -666 c64
-34 89 -128 50 -191 -13 -21 -36 -38 -65 -49 -44 -17 -48 -17 -92 0 -54 21
-84 62 -84 118 0 103 102 168 191 122z m-800 -400 c64 -34 89 -128 50 -191
-13 -21 -36 -38 -65 -49 -44 -17 -48 -17 -92 0 -54 21 -84 62 -84 118 0 103
102 168 191 122z"/>
</g>
</svg>
