<svg xmlns="http://www.w3.org/2000/svg" xmlns:xlink="http://www.w3.org/1999/xlink" version="1.1" width="256" height="256" viewBox="0 0 256 256" xml:space="preserve">

<defs>
</defs>
<g style="stroke: none; stroke-width: 0; stroke-dasharray: none; stroke-linecap: butt; stroke-linejoin: miter; stroke-miterlimit: 10; fill: none; fill-rule: nonzero; opacity: 1;" transform="translate(1.4065934065934016 1.4065934065934016) scale(2.81 2.81)" >
	<path d="M 15.898 90 c -1.657 0 -3 -1.343 -3 -3 V 54.88 c 0 -1.657 1.343 -3 3 -3 s 3 1.343 3 3 V 87 C 18.898 88.657 17.555 90 15.898 90 z" style="stroke: none; stroke-width: 1; stroke-dasharray: none; stroke-linecap: butt; stroke-linejoin: miter; stroke-miterlimit: 10; fill: rgb(0,0,0); fill-rule: nonzero; opacity: 1;" transform=" matrix(1 0 0 1 0 0) " stroke-linecap="round" />
	<path d="M 74.103 60.069 c -1.657 0 -3 -1.343 -3 -3 V 3 c 0 -1.657 1.343 -3 3 -3 s 3 1.343 3 3 v 54.069 C 77.103 58.727 75.76 60.069 74.103 60.069 z" style="stroke: none; stroke-width: 1; stroke-dasharray: none; stroke-linecap: butt; stroke-linejoin: miter; stroke-miterlimit: 10; fill: rgb(0,0,0); fill-rule: nonzero; opacity: 1;" transform=" matrix(1 0 0 1 0 0) " stroke-linecap="round" />
	<path d="M 45 90 c -1.657 0 -3 -1.343 -3 -3 V 28.319 c 0 -1.657 1.343 -3 3 -3 c 1.657 0 3 1.343 3 3 V 87 C 48 88.657 46.657 90 45 90 z" style="stroke: none; stroke-width: 1; stroke-dasharray: none; stroke-linecap: butt; stroke-linejoin: miter; stroke-miterlimit: 10; fill: rgb(0,0,0); fill-rule: nonzero; opacity: 1;" transform=" matrix(1 0 0 1 0 0) " stroke-linecap="round" />
	<path d="M 45 31.319 c -5.914 0 -10.726 -4.812 -10.726 -10.726 S 39.086 9.868 45 9.868 s 10.726 4.812 10.726 10.726 S 50.914 31.319 45 31.319 z M 45 15.868 c -2.605 0 -4.726 2.12 -4.726 4.726 s 2.12 4.726 4.726 4.726 s 4.726 -2.12 4.726 -4.726 S 47.605 15.868 45 15.868 z" style="stroke: none; stroke-width: 1; stroke-dasharray: none; stroke-linecap: butt; stroke-linejoin: miter; stroke-miterlimit: 10; fill: rgb(0,0,0); fill-rule: nonzero; opacity: 1;" transform=" matrix(1 0 0 1 0 0) " stroke-linecap="round" />
	<path d="M 15.898 57.88 c -5.915 0 -10.726 -4.812 -10.726 -10.726 c 0 -5.915 4.812 -10.726 10.726 -10.726 c 5.914 0 10.726 4.812 10.726 10.726 C 26.624 53.068 21.812 57.88 15.898 57.88 z M 15.898 42.428 c -2.606 0 -4.726 2.12 -4.726 4.726 c 0 2.605 2.12 4.726 4.726 4.726 c 2.605 0 4.726 -2.12 4.726 -4.726 C 20.624 44.548 18.503 42.428 15.898 42.428 z" style="stroke: none; stroke-width: 1; stroke-dasharray: none; stroke-linecap: butt; stroke-linejoin: miter; stroke-miterlimit: 10; fill: rgb(0,0,0); fill-rule: nonzero; opacity: 1;" transform=" matrix(1 0 0 1 0 0) " stroke-linecap="round" />
	<path d="M 74.103 75.521 c -5.915 0 -10.727 -4.812 -10.727 -10.727 c 0 -5.914 4.812 -10.726 10.727 -10.726 c 5.914 0 10.726 4.812 10.726 10.726 C 84.828 70.71 80.017 75.521 74.103 75.521 z M 74.103 60.069 c -2.606 0 -4.727 2.12 -4.727 4.726 c 0 2.606 2.12 4.727 4.727 4.727 c 2.605 0 4.726 -2.12 4.726 -4.727 C 78.828 62.189 76.708 60.069 74.103 60.069 z" style="stroke: none; stroke-width: 1; stroke-dasharray: none; stroke-linecap: butt; stroke-linejoin: miter; stroke-miterlimit: 10; fill: rgb(0,0,0); fill-rule: nonzero; opacity: 1;" transform=" matrix(1 0 0 1 0 0) " stroke-linecap="round" />
	<path d="M 15.898 42.428 c -1.657 0 -3 -1.343 -3 -3 V 3 c 0 -1.657 1.343 -3 3 -3 s 3 1.343 3 3 v 36.428 C 18.898 41.085 17.555 42.428 15.898 42.428 z" style="stroke: none; stroke-width: 1; stroke-dasharray: none; stroke-linecap: butt; stroke-linejoin: miter; stroke-miterlimit: 10; fill: rgb(0,0,0); fill-rule: nonzero; opacity: 1;" transform=" matrix(1 0 0 1 0 0) " stroke-linecap="round" />
	<path d="M 45 15.868 c -1.657 0 -3 -1.343 -3 -3 V 3 c 0 -1.657 1.343 -3 3 -3 c 1.657 0 3 1.343 3 3 v 9.868 C 48 14.524 46.657 15.868 45 15.868 z" style="stroke: none; stroke-width: 1; stroke-dasharray: none; stroke-linecap: butt; stroke-linejoin: miter; stroke-miterlimit: 10; fill: rgb(0,0,0); fill-rule: nonzero; opacity: 1;" transform=" matrix(1 0 0 1 0 0) " stroke-linecap="round" />
	<path d="M 74.103 90 c -1.657 0 -3 -1.343 -3 -3 V 72.521 c 0 -1.657 1.343 -3 3 -3 s 3 1.343 3 3 V 87 C 77.103 88.657 75.76 90 74.103 90 z" style="stroke: none; stroke-width: 1; stroke-dasharray: none; stroke-linecap: butt; stroke-linejoin: miter; stroke-miterlimit: 10; fill: rgb(0,0,0); fill-rule: nonzero; opacity: 1;" transform=" matrix(1 0 0 1 0 0) " stroke-linecap="round" />
</g>
</svg>
