<?xml version="1.0" standalone="no"?>
<!DOCTYPE svg PUBLIC "-//W3C//DTD SVG 20010904//EN"
 "http://www.w3.org/TR/2001/REC-SVG-20010904/DTD/svg10.dtd">
<svg version="1.0" xmlns="http://www.w3.org/2000/svg"
 width="512.000000pt" height="512.000000pt" viewBox="0 0 512.000000 512.000000"
 preserveAspectRatio="xMidYMid meet">
<metadata>
Created by potrace 1.14, written by Peter Selinger 2001-2017
</metadata>
<g transform="translate(0.000000,512.000000) scale(0.100000,-0.100000)"
fill="#000000" stroke="none">
<path d="M3669 5102 c-19 -8 -52 -47 -99 -117 -19 -27 -38 -54 -42 -60 -10
-12 -50 -68 -288 -406 -102 -144 -199 -280 -216 -303 -16 -23 -50 -70 -75
-106 -24 -36 -83 -118 -129 -184 -47 -65 -103 -144 -124 -175 -22 -31 -64 -90
-95 -131 l-55 -75 -12 65 c-6 36 -23 129 -38 207 -15 79 -29 153 -31 165 -42
222 -55 254 -115 295 -32 20 -53 26 -100 27 -52 0 -64 -4 -97 -30 -34 -28
-131 -157 -132 -177 -1 -4 -20 -38 -44 -75 -23 -37 -48 -79 -56 -93 -7 -14
-22 -38 -34 -53 l-22 -26 -88 19 c-86 19 -238 22 -308 7 -247 -55 -449 -274
-549 -594 -30 -96 -34 -104 -69 -122 -21 -10 -60 -36 -87 -58 -235 -186 -360
-467 -365 -822 -1 -45 -8 -67 -40 -121 -74 -128 -150 -319 -165 -418 -3 -20
-9 -52 -13 -71 -13 -61 -13 -205 -1 -286 22 -143 86 -297 176 -424 50 -71 65
-108 68 -163 4 -86 -36 -187 -115 -292 -46 -60 -51 -101 -17 -132 28 -26 42
-29 93 -19 38 7 140 52 179 78 155 103 241 256 253 446 3 48 6 88 7 88 0 1
116 -51 257 -115 140 -64 287 -130 325 -147 75 -34 909 -413 1014 -462 36 -16
128 -58 205 -92 77 -35 153 -76 169 -92 15 -15 37 -28 47 -28 31 0 66 21 78
47 8 16 11 176 11 512 l0 488 41 7 c38 6 58 -2 292 -120 184 -93 269 -131 316
-140 35 -7 69 -11 75 -9 6 2 27 6 47 9 20 3 56 14 81 25 47 20 141 103 151
134 6 15 17 17 88 14 72 -3 144 3 226 18 166 30 454 194 570 325 141 160 131
432 -22 583 -33 33 -120 96 -194 142 -9 6 -72 48 -141 95 -68 47 -138 94 -156
105 -17 11 -139 93 -270 181 -132 89 -367 248 -524 353 -157 105 -286 196
-288 201 -2 5 13 69 33 142 109 391 218 784 276 988 28 102 63 226 76 275 14
50 29 104 33 120 33 116 128 460 134 487 14 62 -47 114 -105 90z"/>
</g>
</svg>
